<svg width="2166" height="300" viewBox="0 0 2166 300" fill="none" xmlns="http://www.w3.org/2000/svg">
<path d="M2165.67 192.3C2165.67 194.7 2165.27 197.9 2165.27 201.1H1989.27C1992.47 245.1 2026.07 274.3 2072.07 274.3C2097.67 274.3 2120.47 265.1 2136.47 246.7L2152.47 265.1C2133.67 287.5 2104.47 299.5 2071.27 299.5C2005.67 299.5 1960.87 254.7 1960.87 192.3C1960.87 129.9 2004.47 85.5 2063.67 85.5C2122.87 85.5 2165.67 129.1 2165.67 192.3ZM2063.67 109.9C2022.87 109.9 1992.87 138.7 1989.27 179.9H2138.47C2134.87 138.7 2104.87 109.9 2063.67 109.9Z" fill="black"/>
<path d="M1817.79 85.5C1868.99 85.5 1904.19 115.1 1904.19 175.5V297.5H1875.79V178.3C1875.79 133.9 1852.59 111.1 1812.59 111.1C1767.39 111.1 1738.99 139.1 1738.99 187.1V297.5H1710.59V87.1H1737.79V125.9C1752.99 100.3 1781.39 85.5 1817.79 85.5Z" fill="black"/>
<path d="M1617.57 41.1C1605.97 41.1 1596.77 31.9 1596.77 20.7C1596.77 9.89995 1605.97 0.699951 1617.57 0.699951C1629.17 0.699951 1638.37 9.49996 1638.37 20.3C1638.37 31.9 1629.57 41.1 1617.57 41.1ZM1603.17 297.5V87.1H1631.57V297.5H1603.17Z" fill="black"/>
<path d="M1495.74 297.5V0.699951H1524.14V297.5H1495.74Z" fill="black"/>
<path d="M1332.24 85.5C1383.44 85.5 1418.64 115.1 1418.64 175.5V297.5H1390.24V178.3C1390.24 133.9 1367.04 111.1 1327.04 111.1C1281.84 111.1 1253.44 139.1 1253.44 187.1V297.5H1225.04V87.1H1252.24V125.9C1267.44 100.3 1295.84 85.5 1332.24 85.5Z" fill="black"/>
<path d="M1060.26 299.5C998.659 299.5 953.059 254.7 953.059 192.3C953.059 129.9 998.659 85.5 1060.26 85.5C1121.86 85.5 1167.06 129.9 1167.06 192.3C1167.06 254.7 1121.86 299.5 1060.26 299.5ZM1060.26 274.3C1105.06 274.3 1138.26 241.5 1138.26 192.3C1138.26 143.1 1105.06 110.3 1060.26 110.3C1015.46 110.3 981.859 143.1 981.859 192.3C981.859 241.5 1015.46 274.3 1060.26 274.3Z" fill="black"/>
<path d="M898.153 299.5C886.553 299.5 876.953 289.9 876.953 277.5C876.953 265.1 886.553 255.9 898.153 255.9C909.753 255.9 919.753 265.1 919.753 277.5C919.753 289.9 909.753 299.5 898.153 299.5Z" fill="black"/>
<path d="M731.848 85.5C783.048 85.5 818.248 115.1 818.248 175.5V297.5H789.848V178.3C789.848 133.9 766.648 111.1 726.648 111.1C681.448 111.1 653.048 139.1 653.048 187.1V297.5H624.648V87.1H651.848V125.9C667.048 100.3 695.448 85.5 731.848 85.5Z" fill="black"/>
<path d="M452.604 299.9C387.804 299.9 341.004 246.7 341.004 157.5C341.004 68.2999 387.804 15.0999 452.604 15.0999C517.404 15.0999 564.604 68.2999 564.604 157.5C564.604 246.7 517.404 299.9 452.604 299.9ZM452.604 273.5C501.404 273.5 535.004 232.3 535.004 157.5C535.004 82.6999 501.404 41.4998 452.604 41.4998C403.804 41.4998 370.204 82.6999 370.204 157.5C370.204 232.3 403.804 273.5 452.604 273.5Z" fill="black"/>
<path d="M179.273 17.5H274.073V297.5H245.273V43.1H179.273V17.5Z" fill="black"/>
<path d="M0.960938 297.5V17.5H30.5609V271.9H187.361V297.5H0.960938Z" fill="black"/>
</svg>
