<svg width="576" height="587" viewBox="0 0 576 587" fill="none" xmlns="http://www.w3.org/2000/svg">
<path d="M121.184 109.611V450.018C61.0239 450.018 12.2539 373.811 12.2539 279.811C12.2539 185.811 61.0239 109.611 121.184 109.611Z" fill="white"/>
<path d="M107.568 124.899C62.0739 136.13 25.8699 202.511 25.8699 279.811C25.8699 357.111 62.0699 423.495 107.57 434.726V124.899M121.184 109.611V450.018C61.0239 450.018 12.2539 373.811 12.2539 279.811C12.2539 185.811 61.0239 109.611 121.184 109.611Z" fill="black"/>
<path d="M99.3947 70.8051H119.139V179.735H99.3947C84.9497 179.735 71.0963 173.997 60.8821 163.783C50.6679 153.568 44.9297 139.715 44.9297 125.27C44.9297 110.825 50.6679 96.9717 60.8821 86.7575C71.0963 76.5433 84.9497 70.8051 99.3947 70.8051Z" fill="white"/>
<path d="M99.3947 84.4211C88.5606 84.4211 78.1702 88.7249 70.5094 96.3857C62.8485 104.047 58.5447 114.437 58.5447 125.271C58.5447 136.105 62.8485 146.496 70.5094 154.156C78.1702 161.817 88.5606 166.121 99.3947 166.121H105.522V84.4211H99.3947ZM99.3947 70.8051H119.139V179.735H99.3947C84.9497 179.735 71.0963 173.997 60.8821 163.783C50.6679 153.568 44.9297 139.715 44.9297 125.27C44.9297 110.825 50.6679 96.9717 60.8821 86.7575C71.0963 76.5433 84.9497 70.8051 99.3947 70.8051Z" fill="black"/>
<path d="M99.3951 93.953H119.139V156.588H99.3951C95.2824 156.588 91.21 155.778 87.4104 154.204C83.6108 152.63 80.1584 150.323 77.2503 147.415C74.3422 144.507 72.0355 141.054 70.4617 137.255C68.8879 133.455 68.078 129.383 68.0781 125.27C68.0781 116.964 71.3776 108.999 77.2507 103.126C83.1237 97.2525 91.0893 93.953 99.3951 93.953Z" fill="black"/>
<path d="M99.3956 107.569C94.7013 107.569 90.1992 109.434 86.8798 112.753C83.5604 116.073 81.6956 120.575 81.6956 125.269C81.6956 129.963 83.5604 134.465 86.8798 137.785C90.1992 141.104 94.7013 142.969 99.3956 142.969H105.523V107.569H99.3956ZM99.3956 93.953H119.14V156.588H99.3956C91.0897 156.588 83.124 153.288 77.2508 147.415C71.3776 141.542 68.0781 133.576 68.0781 125.271C68.0781 116.965 71.3776 108.999 77.2508 103.126C83.124 97.2525 91.0897 93.953 99.3956 93.953Z" fill="black"/>
<path d="M121.184 164.077V504.484C61.0239 504.484 12.2539 428.277 12.2539 334.277C12.2539 240.277 61.0239 164.077 121.184 164.077Z" fill="white"/>
<path d="M107.568 179.365C62.0739 190.596 25.8699 256.977 25.8699 334.277C25.8699 411.577 62.0699 477.961 107.57 489.192V179.365M121.184 164.077V504.484C61.0239 504.484 12.2539 428.277 12.2539 334.277C12.2539 240.277 61.0239 164.077 121.184 164.077Z" fill="black"/>
<path d="M0 214.457H170.2V302.963H54C39.6783 302.963 25.9432 297.274 15.8162 287.147C5.68927 277.02 0 263.285 0 248.963L0 214.457Z" fill="#BE2E31"/>
<path d="M13.616 228.073V266.199C13.6229 272.336 16.0639 278.22 20.4035 282.56C24.7431 286.899 30.6269 289.34 36.764 289.347H156.587V228.073H13.616ZM0 214.457H170.2V302.963H36.764C27.0136 302.963 17.6625 299.09 10.7679 292.195C3.87334 285.301 0 275.949 0 266.199L0 214.457Z" fill="black"/>
<path d="M157.266 204.925V545.332C97.1059 545.332 48.3359 469.125 48.3359 375.125C48.3359 281.125 97.1059 204.925 157.266 204.925Z" fill="white"/>
<path d="M143.65 220.213C98.1559 231.444 61.9519 297.825 61.9519 375.125C61.9519 452.425 98.1519 518.809 143.652 530.04V220.213M157.266 204.925V545.332C97.1059 545.332 48.3359 469.125 48.3359 375.125C48.3359 281.125 97.1059 204.925 157.266 204.925Z" fill="black"/>
<path d="M37.4414 324.068H233.408V412.574H91.4414C77.1197 412.574 63.3846 406.885 53.2576 396.758C43.1307 386.631 37.4414 372.896 37.4414 358.574V324.068Z" fill="#3F48CC"/>
<path d="M51.0574 337.684V375.81C51.0643 381.947 53.5053 387.831 57.8449 392.171C62.1845 396.51 68.0683 398.951 74.2054 398.958H219.792V337.684H51.0574ZM37.4414 324.068H233.408V412.574H74.2054C64.455 412.574 55.1039 408.701 48.2093 401.806C41.3147 394.912 37.4414 385.561 37.4414 375.81V324.068Z" fill="black"/>
<path d="M223.875 245.774V586.181C163.715 586.181 114.945 509.974 114.945 415.974C114.945 321.974 163.715 245.774 223.875 245.774Z" fill="white"/>
<path d="M210.259 261.062C164.765 272.293 128.561 338.674 128.561 415.974C128.561 493.274 164.761 559.658 210.261 570.889V261.062M223.875 245.774V586.181C163.715 586.181 114.945 509.974 114.945 415.974C114.945 321.974 163.715 245.774 223.875 245.774Z" fill="black"/>
<path d="M454.672 109.611V450.018C514.833 450.018 563.602 373.818 563.602 279.818C563.602 185.818 514.833 109.611 454.672 109.611Z" fill="white"/>
<path d="M468.288 124.899V434.73C513.782 423.499 549.988 357.12 549.988 279.815C549.988 202.51 513.782 136.13 468.288 124.899ZM454.672 109.611C514.833 109.611 563.602 185.811 563.602 279.811C563.602 373.811 514.833 450.018 454.672 450.018V109.611Z" fill="black"/>
<path d="M456.715 70.8051H476.459C483.611 70.8051 490.694 72.2138 497.302 74.951C503.91 77.6881 509.914 81.6999 514.971 86.7575C520.029 91.815 524.041 97.8192 526.778 104.427C529.515 111.035 530.924 118.118 530.924 125.27C530.924 132.422 529.515 139.505 526.778 146.113C524.041 152.721 520.029 158.725 514.971 163.783C509.914 168.84 503.91 172.852 497.302 175.589C490.694 178.326 483.611 179.735 476.459 179.735H456.715V70.8051Z" fill="white"/>
<path d="M470.331 84.4211V166.121H476.458C487.292 166.121 497.682 161.817 505.343 154.156C513.004 146.496 517.308 136.105 517.308 125.271C517.308 114.437 513.004 104.047 505.343 96.3857C497.682 88.7249 487.292 84.4211 476.458 84.4211H470.331ZM456.715 70.8051H476.459C490.904 70.8051 504.757 76.5433 514.971 86.7575C525.186 96.9717 530.924 110.825 530.924 125.27C530.924 139.715 525.186 153.568 514.971 163.783C504.757 173.997 490.904 179.735 476.459 179.735H456.715V70.8051Z" fill="black"/>
<path d="M456.715 93.953H476.459C484.765 93.953 492.73 97.2525 498.603 103.126C504.476 108.999 507.776 116.964 507.776 125.27C507.776 129.383 506.966 133.455 505.392 137.255C503.818 141.054 501.512 144.507 498.604 147.415C495.696 150.323 492.243 152.63 488.444 154.204C484.644 155.778 480.572 156.588 476.459 156.588H456.715V93.953Z" fill="black"/>
<path d="M470.331 107.569V142.969H476.458C478.782 142.969 481.084 142.511 483.231 141.622C485.379 140.732 487.33 139.428 488.974 137.785C490.617 136.141 491.921 134.19 492.811 132.042C493.7 129.895 494.158 127.593 494.158 125.269C494.158 122.945 493.7 120.643 492.811 118.496C491.921 116.348 490.617 114.397 488.974 112.753C487.33 111.11 485.379 109.806 483.231 108.916C481.084 108.027 478.782 107.569 476.458 107.569H470.331ZM456.715 93.953H476.459C484.765 93.953 492.73 97.2525 498.604 103.126C504.477 108.999 507.776 116.965 507.776 125.271C507.776 133.576 504.477 141.542 498.604 147.415C492.73 153.288 484.765 156.588 476.459 156.588H456.715V93.953Z" fill="black"/>
<path d="M454.672 164.077V504.484C514.833 504.484 563.602 428.284 563.602 334.284C563.602 240.284 514.833 164.077 454.672 164.077Z" fill="white"/>
<path d="M468.288 179.365V489.196C513.782 477.965 549.988 411.586 549.988 334.281C549.988 256.976 513.782 190.596 468.288 179.365ZM454.672 164.077C514.833 164.077 563.602 240.277 563.602 334.277C563.602 428.277 514.833 504.484 454.672 504.484V164.077Z" fill="black"/>
<path d="M405.656 214.457H575.856V248.963C575.856 263.285 570.167 277.02 560.04 287.147C549.913 297.274 536.178 302.963 521.856 302.963H405.656V214.457Z" fill="#FFC90E"/>
<path d="M419.272 228.073V289.347H539.096C545.233 289.34 551.117 286.899 555.457 282.56C559.796 278.22 562.237 272.336 562.244 266.199V228.073H419.272ZM405.656 214.457H575.856V266.199C575.856 275.949 571.983 285.299 565.09 292.194C558.196 299.088 548.846 302.962 539.096 302.963H405.656V214.457Z" fill="black"/>
<path d="M418.59 204.925V545.332C478.751 545.332 527.52 469.132 527.52 375.132C527.52 281.132 478.751 204.925 418.59 204.925Z" fill="white"/>
<path d="M432.206 220.213V530.044C477.7 518.813 513.906 452.434 513.906 375.129C513.906 297.824 477.7 231.444 432.206 220.213ZM418.59 204.925C478.751 204.925 527.52 281.125 527.52 375.125C527.52 469.125 478.751 545.332 418.59 545.332V204.925Z" fill="black"/>
<path d="M342.445 324.068H538.412V358.574C538.412 372.896 532.723 386.631 522.596 396.758C512.469 406.885 498.734 412.574 484.412 412.574H342.445V324.068Z" fill="#22B14C"/>
<path d="M356.061 337.684V398.958H501.645C507.782 398.951 513.666 396.51 518.006 392.171C522.345 387.831 524.786 381.947 524.793 375.81V337.684H356.061ZM342.445 324.068H538.412V375.81C538.412 380.638 537.461 385.419 535.614 389.88C533.766 394.34 531.057 398.393 527.643 401.807C524.229 405.221 520.176 407.929 515.715 409.776C511.254 411.624 506.473 412.575 501.645 412.574H342.445V324.068Z" fill="black"/>
<path d="M351.977 245.774V586.181C412.138 586.181 460.907 509.981 460.907 415.981C460.907 321.981 412.138 245.774 351.977 245.774Z" fill="white"/>
<path d="M365.593 261.062V570.893C411.087 559.662 447.293 493.283 447.293 415.978C447.293 338.673 411.087 272.293 365.593 261.062ZM351.977 245.774C412.138 245.774 460.907 321.974 460.907 415.974C460.907 509.974 412.138 586.181 351.977 586.181V245.774Z" fill="black"/>
<path d="M287.982 108.25L468.398 163.688V238.966C468.398 337.112 394.807 405.292 394.807 405.292H181.004C181.004 405.292 107.566 338.607 107.566 238.966V163.688L287.982 108.25Z" fill="white"/>
<path d="M287.982 122.495L121.182 173.75V238.967C121.182 318.79 172.444 377.111 186.582 391.677H389.154C403.397 376.777 454.781 317.55 454.781 238.967V173.75L287.981 122.496M287.981 108.251L468.397 163.689V238.967C468.397 337.113 394.806 405.293 394.806 405.293H181.004C181.004 405.293 107.566 338.607 107.566 238.966V163.688L287.981 108.251Z" fill="black"/>
<path d="M287.982 214.651L297.939 152.502L468.397 178.373V42.167L386.697 66.397L287.982 0L188.582 66.4L107.566 42.167V178.373L276.005 152.5L287.982 214.651Z" fill="white"/>
<path d="M454.781 162.535V60.408L384.422 81.275L287.956 16.392L190.819 81.278L121.182 60.451V162.506L286.618 137.1L286.631 137.018L454.782 162.539M287.982 214.656L276.005 152.5L107.566 178.373V42.167L188.583 66.4L287.983 0L386.701 66.4L468.401 42.17V178.373L297.939 152.5L287.982 214.656Z" fill="black"/>
<path d="M238.777 209.129C238.777 199.337 247.75 179.168 249.821 174.529V209.129C249.821 210.593 249.24 211.998 248.204 213.034C247.168 214.069 245.764 214.651 244.299 214.651C242.835 214.651 241.43 214.069 240.395 213.034C239.359 211.998 238.777 210.593 238.777 209.129Z" fill="black"/>
<path d="M332.235 209.129C332.235 199.337 323.262 179.168 321.191 174.529V209.129C321.191 210.593 321.773 211.998 322.809 213.034C323.844 214.069 325.249 214.651 326.713 214.651C328.178 214.651 329.582 214.069 330.618 213.034C331.654 211.998 332.235 210.593 332.235 209.129Z" fill="black"/>
<path d="M358.965 479.011L288.088 528.675L216.988 479.1V422.348H358.965V479.011Z" fill="white"/>
<path d="M288.101 536.984L210.188 482.655V415.542H365.777V482.552L288.101 536.984ZM223.801 475.55L288.078 520.371L352.157 475.471V429.162H223.804L223.801 475.55Z" fill="black"/>
<path d="M233.299 295.336L169.746 386.811V430.676C170.086 437.588 171.867 444.353 174.974 450.537C178.08 456.721 182.444 462.187 187.786 466.587C206.151 482.052 216.394 481.05 216.394 481.05C216.394 481.05 220.794 461.619 239.672 445.795C258.55 429.971 285.831 427.195 285.831 427.195V415.095C285.831 410.44 285.721 385.265 264.814 385.265" fill="white"/>
<path d="M215.93 487.878C212.05 487.878 200.73 486.394 183.401 471.798C162.801 454.449 162.923 431.538 162.939 430.571V384.681L227.705 291.457L238.887 299.226L176.551 388.949V430.681C176.551 431.46 176.666 448.33 192.169 461.381C201.15 468.944 207.78 472.065 211.736 473.352C216.707 460.62 224.81 449.348 235.295 440.579C250.127 428.144 269.336 423.179 279.02 421.364V415.101C279.02 404.601 276.555 392.079 264.811 392.079V378.463C282.234 378.463 292.636 392.163 292.636 415.101V433.335L286.525 433.972C286.272 433.998 261.025 436.772 244.043 451.013C227.123 465.199 223.07 482.384 223.031 482.555L221.945 487.347L217.055 487.826C216.805 487.857 216.431 487.878 215.93 487.878Z" fill="black"/>
<path d="M342.383 295.336L405.936 386.811V430.676C405.595 437.588 403.815 444.353 400.708 450.537C397.602 456.721 393.238 462.187 387.896 466.587C369.531 482.052 359.288 481.05 359.288 481.05C359.288 481.05 354.888 461.619 336.011 445.795C317.134 429.971 289.852 427.195 289.852 427.195V415.095C289.852 410.44 289.962 385.265 310.869 385.265" fill="white"/>
<path d="M359.752 487.878C359.252 487.878 358.874 487.853 358.624 487.829L353.734 487.35L352.648 482.558C352.613 482.412 348.37 465.045 331.636 451.016C314.563 436.702 289.415 434.002 289.163 433.976L283.043 433.354V415.104C283.043 392.162 293.443 378.466 310.868 378.466V392.082C299.124 392.082 296.659 404.602 296.659 415.104V421.367C306.343 423.181 325.552 428.147 340.384 440.582C350.874 449.356 358.98 460.635 363.951 473.375C367.845 472.093 374.493 468.975 383.51 461.384C399.22 448.154 399.131 430.96 399.129 430.784V388.944L336.793 299.221L347.975 291.452L412.745 384.678V430.678C412.759 431.537 412.883 454.448 392.282 471.797C374.95 486.393 363.632 487.878 359.752 487.878Z" fill="black"/>
<path d="M226.707 367.64H349.254C349.254 381.176 331.473 392.149 317.937 392.149H258.024C244.488 392.149 226.707 381.176 226.707 367.64Z" fill="black"/>
<path d="M349.176 367.715H226.789L225.348 245.267L238.963 245.107L240.245 354.098H335.718L337 245.107L350.615 245.267L349.176 367.715Z" fill="black"/>
<path d="M159.297 220.584L211.089 220.563C225.189 220.563 238.972 231.711 238.972 245.812C238.972 245.812 230.272 254.901 225.462 254.901C225.462 245.564 197.326 244.266 183.662 239.736C169.998 235.206 159.297 228.494 159.297 220.584Z" fill="black"/>
<path d="M416.656 220.584L364.863 220.563C350.763 220.563 336.98 231.712 336.98 245.812C336.98 245.812 345.68 254.901 350.49 254.901C350.49 245.564 378.626 244.266 392.29 239.736C405.954 235.206 416.656 228.494 416.656 220.584Z" fill="black"/>
</svg>
